<svg width="64" height="64" viewBox="0 0 64 64" fill="none" xmlns="http://www.w3.org/2000/svg">
  <!-- Background circle with gradient -->
  <defs>
    <linearGradient id="bgGradient" x1="0%" y1="0%" x2="100%" y2="100%">
      <stop offset="0%" style="stop-color:#2E5A87;stop-opacity:1" />
      <stop offset="100%" style="stop-color:#2B3E54;stop-opacity:1" />
    </linearGradient>
    <linearGradient id="lockGradient" x1="0%" y1="0%" x2="100%" y2="100%">
      <stop offset="0%" style="stop-color:#F5F7FA;stop-opacity:1" />
      <stop offset="100%" style="stop-color:#E8EEF3;stop-opacity:1" />
    </linearGradient>
  </defs>
  
  <!-- Main background circle -->
  <circle cx="32" cy="32" r="32" fill="url(#bgGradient)"/>
  
  <!-- Chat bubble 1 (main) -->
  <path d="M14 20 C14 17.79 15.79 16 18 16 L38 16 C40.21 16 42 17.79 42 20 L42 30 C42 32.21 40.21 34 38 34 L24 34 L18 38 C16.9 38.67 15.5 37.89 15.5 36.62 L15.5 34 C14.67 34 14 33.33 14 32.5 Z" fill="white" opacity="0.9"/>
  
  <!-- Chat bubble 2 (smaller, overlapping) -->
  <path d="M22 28 C22 25.79 23.79 24 26 24 L46 24 C48.21 24 50 25.79 50 28 L50 38 C50 40.21 48.21 42 46 42 L32 42 L26 46 C24.9 46.67 23.5 45.89 23.5 44.62 L23.5 42 C22.67 42 22 41.33 22 40.5 Z" fill="white" opacity="0.7"/>
  
  <!-- Security lock icon in center -->
  <g transform="translate(28, 30)">
    <!-- Lock body -->
    <rect x="2" y="6" width="12" height="8" rx="1" fill="url(#lockGradient)"/>
    <!-- Lock shackle -->
    <path d="M5 6 L5 4 C5 2.34 6.34 1 8 1 C9.66 1 11 2.34 11 4 L11 6" stroke="url(#lockGradient)" stroke-width="1.5" fill="none" stroke-linecap="round"/>
    <!-- Lock keyhole -->
    <circle cx="8" cy="9" r="1" fill="#2E5A87"/>
    <rect x="7.5" y="9" width="1" height="2" fill="#2E5A87"/>
  </g>
  
  <!-- Lightning bolt for "smart" messaging -->
  <path d="M20 14 L18 18 L21 18 L19 22 L22 18 L19 18 Z" fill="#4CAF50" opacity="0.8"/>
  
  <!-- Signal strength indicator -->
  <g transform="translate(44, 14)">
    <rect x="0" y="6" width="2" height="2" fill="#4CAF50"/>
    <rect x="3" y="4" width="2" height="4" fill="#4CAF50"/>
    <rect x="6" y="2" width="2" height="6" fill="#4CAF50"/>
  </g>
</svg>