<svg width="512" height="512" viewBox="0 0 512 512" fill="none" xmlns="http://www.w3.org/2000/svg">
  <!-- Background with gradient -->
  <rect width="512" height="512" rx="120" fill="url(#gradient)" />
  
  <!-- Main chat bubble -->
  <path d="M130 160C130 138.461 147.461 121 169 121h174c21.539 0 39 17.461 39 39v120c0 21.539-17.461 39-39 39h-134l-45 45v-45h-10c-21.539 0-39-17.461-39-39V160z" fill="white" opacity="0.95"/>
  
  <!-- Secondary chat bubble -->
  <path d="M170 220C170 198.461 187.461 181 209 181h174c21.539 0 39 17.461 39 39v120c0 21.539-17.461 39-39 39h-134l-45 45v-45h-10c-21.539 0-39-17.461-39-39V220z" fill="url(#chatGradient)" opacity="0.9"/>
  
  <!-- Shield security icon -->
  <path d="M256 180L280 160L304 180V210C304 230 292 248 276 256C268 260 244 260 236 256C220 248 208 230 208 210V180L232 160L256 180Z" fill="white" opacity="0.95"/>
  
  <!-- Lightning bolt for speed -->
  <path d="M320 200L300 240H315L310 280L330 240H315L320 200Z" fill="#FFD700" opacity="0.9"/>
  
  <!-- Signal strength bars -->
  <rect x="180" y="290" width="8" height="20" rx="2" fill="white" opacity="0.8"/>
  <rect x="195" y="280" width="8" height="30" rx="2" fill="white" opacity="0.9"/>
  <rect x="210" y="270" width="8" height="40" rx="2" fill="white"/>
  <rect x="225" y="260" width="8" height="50" rx="2" fill="#00FF88"/>
  
  <!-- WizSpeek brand text -->
  <text x="256" y="400" font-family="Arial, sans-serif" font-size="42" font-weight="bold" text-anchor="middle" fill="white">WizSpeek</text>
  <text x="256" y="430" font-family="Arial, sans-serif" font-size="16" text-anchor="middle" fill="white" opacity="0.8">Talk Smart. Stay Secure.</text>
  
  <!-- Decorative elements -->
  <circle cx="150" cy="140" r="3" fill="white" opacity="0.6"/>
  <circle cx="380" cy="160" r="2" fill="white" opacity="0.5"/>
  <circle cx="170" cy="380" r="2.5" fill="white" opacity="0.4"/>
  <circle cx="360" cy="390" r="3.5" fill="white" opacity="0.3"/>
  
  <!-- Gradients -->
  <defs>
    <linearGradient id="gradient" x1="0%" y1="0%" x2="100%" y2="100%">
      <stop offset="0%" style="stop-color:#2E5A87;stop-opacity:1" />
      <stop offset="50%" style="stop-color:#1B4A73;stop-opacity:1" />
      <stop offset="100%" style="stop-color:#2B3E54;stop-opacity:1" />
    </linearGradient>
    
    <linearGradient id="chatGradient" x1="0%" y1="0%" x2="100%" y2="100%">
      <stop offset="0%" style="stop-color:#3A6B99;stop-opacity:1" />
      <stop offset="100%" style="stop-color:#2E5A87;stop-opacity:1" />
    </linearGradient>
  </defs>
</svg>