<svg width="512" height="512" viewBox="0 0 512 512" fill="none" xmlns="http://www.w3.org/2000/svg">
  <defs>
    <linearGradient id="gradient" x1="0%" y1="0%" x2="100%" y2="100%">
      <stop offset="0%" style="stop-color:#2E5A87;stop-opacity:1" />
      <stop offset="100%" style="stop-color:#2B3E54;stop-opacity:1" />
    </linearGradient>
  </defs>
  
  <!-- Background circle -->
  <circle cx="256" cy="256" r="240" fill="url(#gradient)" stroke="#1e293b" stroke-width="8"/>
  
  <!-- Chat bubble 1 -->
  <path d="M150 170 C150 150, 170 130, 190 130 L278 130 C298 130, 318 150, 318 170 L318 214 C318 234, 298 254, 278 254 L214 254 L170 286 L186 254 L190 254 C170 254, 150 234, 150 214 Z" fill="white" opacity="0.9"/>
  
  <!-- Chat bubble 2 -->
  <path d="M194 290 C194 270, 214 250, 234 250 L322 250 C342 250, 362 270, 362 290 L362 334 C362 354, 342 374, 322 374 L258 374 L214 406 L230 374 L234 374 C214 374, 194 354, 194 334 Z" fill="white" opacity="0.7"/>
  
  <!-- Security lock -->
  <rect x="208" y="186" width="42" height="32" rx="6" fill="#2E5A87"/>
  <path d="M220 186 C220 174, 230 166, 240 166 C250 166, 260 174, 260 186" stroke="#2E5A87" stroke-width="6" fill="none"/>
  
  <!-- Lightning bolt (smart messaging) -->
  <path d="M268 294 L288 294 L272 326 L294 326 L268 370 L254 342 L272 342 L256 310 Z" fill="#2E5A87"/>
  
  <!-- Signal strength bars -->
  <rect x="182" y="350" width="8" height="16" fill="white" opacity="0.8"/>
  <rect x="196" y="344" width="8" height="22" fill="white" opacity="0.8"/>
  <rect x="210" y="338" width="8" height="28" fill="white" opacity="0.8"/>
  <rect x="224" y="332" width="8" height="34" fill="white" opacity="0.8"/>
</svg>